<?xml version="1.0" encoding="UTF-8"?>
<svg width="27px" height="21px" viewBox="0 0 27 21" version="1.1" xmlns="http://www.w3.org/2000/svg" xmlns:xlink="http://www.w3.org/1999/xlink">
    <!-- Generator: Sketch 49.2 (51160) - http://www.bohemiancoding.com/sketch -->
    <title>if_check_1608619 (1)</title>
    <desc>Created with Sketch.</desc>
    <defs></defs>
    <g id="Page-1" stroke="none" stroke-width="1" fill="none" fill-rule="evenodd">
        <g id="iPhone-8-Copy-4" transform="translate(-45.000000, -343.000000)" fill="#FFFFFF" fill-rule="nonzero">
            <g id="if_check_1608619-(1)" transform="translate(45.000000, 343.000000)">
                <path d="M27,4.1010101 C27,4.57239057 26.8374194,4.97306397 26.5122581,5.3030303 L13.9006452,18.1010101 L11.5316129,20.5050505 C11.2064516,20.8350168 10.8116129,21 10.3470968,21 C9.88258065,21 9.48774194,20.8350168 9.16258065,20.5050505 L6.79354839,18.1010101 L0.487741935,11.7020202 C0.162580645,11.3720539 0,10.9713805 0,10.5 C0,10.0286195 0.162580645,9.62794613 0.487741935,9.2979798 L2.85677419,6.89393939 C3.18193548,6.56397306 3.57677419,6.3989899 4.04129032,6.3989899 C4.50580645,6.3989899 4.90064516,6.56397306 5.22580645,6.89393939 L10.3470968,12.1085859 L21.7741935,0.494949495 C22.0993548,0.164983165 22.4941935,0 22.9587097,0 C23.4232258,0 23.8180645,0.164983165 24.1432258,0.494949495 L26.5122581,2.8989899 C26.8374194,3.22895623 27,3.62962963 27,4.1010101 Z" id="Shape"></path>
            </g>
        </g>
    </g>
</svg>