<?xml version="1.0" encoding="UTF-8"?>
<svg width="16px" height="16px" viewBox="0 0 16 16" version="1.1" xmlns="http://www.w3.org/2000/svg" xmlns:xlink="http://www.w3.org/1999/xlink">
    <!-- Generator: Sketch 49.2 (51160) - http://www.bohemiancoding.com/sketch -->
    <title>Close</title>
    <desc>Created with Sketch.</desc>
    <defs></defs>
    <g id="Page-1" stroke="none" stroke-width="1" fill="none" fill-rule="evenodd" opacity="0.5">
        <g id="iPhone-8-Copy-5" transform="translate(-336.000000, -33.000000)" fill="#FFFFFF" fill-rule="nonzero">
            <g id="header">
                <g id="if_Close_1031533" transform="translate(336.000000, 33.000000)">
                    <path d="M9.18178534,8.01731986 L15.7699612,1.46512747 C16.0858162,1.15247099 16.0858162,0.646303332 15.7699612,0.334446481 C15.4549058,0.0217899979 14.9431407,0.0217899979 14.6280854,0.334446481 L8.04550692,6.88104144 L1.40215638,0.236891261 C1.087101,-0.0789637538 0.575335907,-0.0789637538 0.260280525,0.236891261 C-0.0547748571,0.553545909 -0.0547748571,1.06611063 0.260280525,1.38196565 L6.89883327,8.02131803 L0.236291537,14.6470766 C-0.0787638455,14.9597331 -0.0787638455,15.4659008 0.236291537,15.7777576 C0.551346919,16.0904141 1.06311201,16.0904141 1.37816739,15.7777576 L8.03511169,9.15759645 L14.6520744,15.7753587 C14.9671297,16.0912138 15.4788948,16.0912138 15.7939502,15.7753587 C16.1090056,15.4587041 16.1090056,14.9461394 15.7939502,14.6302844 L9.18178534,8.01731986 Z" id="Close"></path>
                </g>
            </g>
        </g>
    </g>
</svg>