<?xml version="1.0" encoding="UTF-8"?>
<svg width="25px" height="24px" viewBox="0 0 25 24" version="1.1" xmlns="http://www.w3.org/2000/svg" xmlns:xlink="http://www.w3.org/1999/xlink">
    <!-- Generator: Sketch 49.2 (51160) - http://www.bohemiancoding.com/sketch -->
    <title>Shape</title>
    <desc>Created with Sketch.</desc>
    <defs></defs>
    <g id="Page-1" stroke="none" stroke-width="1" fill="none" fill-rule="evenodd">
        <g id="iPhone-8-Copy-3" transform="translate(-98.000000, -625.000000)" fill="#C1C1C1">
            <g id="footer" transform="translate(-2.000000, 616.000000)">
                <g id="item" transform="translate(91.000000, 9.000000)">
                    <g id="if_th-list_1608362" transform="translate(1.000000, 0.000000)">
                        <g id="if_38_110995" transform="translate(20.500000, 12.000000) scale(-1, -1) translate(-20.500000, -12.000000) translate(8.000000, 0.000000)">
                            <path d="M0.554209999,13.7499157 C0.554209999,19.4101275 5.24198136,24 11.0223071,24 C16.8028576,24 21.4904041,19.4101275 21.4904041,13.7499157 C21.4904041,11.8149511 20.6427317,9.35491549 19.9586136,8.31005662 C19.3660522,7.41505293 19.1615812,6.84001183 19.1615812,5.99998624 C19.1615812,4.24998796 21.0460534,2.49993465 23.0224195,2.49993465 L23.2777554,2.49993465 C23.9823318,2.49993465 24.55421,1.93986255 24.55421,1.24996732 C24.55421,0.560072093 23.9823318,0 23.2777554,0 L23.0224195,0 C19.88167,0 17.1957815,1.64015217 16.5575823,4.99992433 C15.2498781,4.03002057 13.2179821,3.50005159 11.0222509,3.50005159 C5.24198136,3.49999656 0.554209999,8.09003419 0.554209999,13.7499157 Z M9.74574002,13.7499157 C9.74574002,13.0600205 10.3177306,12.5000034 11.0223071,12.5000034 C11.7268835,12.5000034 12.2988741,13.0600205 12.2988741,13.7499157 C12.2988741,14.4400311 11.7268835,14.9999931 11.0223071,14.9999931 C10.3177306,14.9999931 9.74574002,14.4400311 9.74574002,13.7499157 Z M3.10734409,13.7499157 C3.10734409,12.5048464 4.13363362,11.4999415 5.40519849,11.4999415 C6.67681956,11.4999415 7.7031653,12.5048464 7.7031653,13.7499157 C7.7031653,14.9951502 6.67687577,16.000055 5.40519849,16.000055 C4.13368983,16.000055 3.10734409,14.9951502 3.10734409,13.7499157 Z M14.3414488,13.7499157 C14.3414488,12.5048464 15.3677384,11.4999415 16.6394718,11.4999415 C17.9110367,11.4999415 18.9373824,12.5048464 18.9373824,13.7499157 C18.9373824,14.9951502 17.9110367,16.000055 16.6394718,16.000055 C15.3677384,16.000055 14.3414488,14.9951502 14.3414488,13.7499157 Z M8.72439646,19.2500911 C8.72439646,18.0048016 9.75068599,16.9998418 11.0223633,16.9998418 C12.2940405,16.9998418 13.3202739,18.0048016 13.3202739,19.2500911 C13.3202739,20.4951055 12.2939843,21.5000103 11.0223633,21.5000103 C9.7507422,21.5000103 8.72439646,20.4951055 8.72439646,19.2500911 Z M8.72439646,8.24990541 C8.72439646,7.00483604 9.75068599,5.99998624 11.0223633,5.99998624 C12.2940405,5.99998624 13.3202739,7.00489107 13.3202739,8.24990541 C13.3202739,9.49502982 12.2939843,10.4999897 11.0223633,10.4999897 C9.7507422,10.4999897 8.72439646,9.49502982 8.72439646,8.24990541 Z" id="Shape" transform="translate(12.554210, 12.000000) rotate(180.000000) translate(-12.554210, -12.000000) "></path>
                        </g>
                    </g>
                </g>
            </g>
        </g>
    </g>
</svg>