<?xml version="1.0" encoding="UTF-8"?>
<svg width="17px" height="16px" viewBox="0 0 17 16" version="1.1" xmlns="http://www.w3.org/2000/svg" xmlns:xlink="http://www.w3.org/1999/xlink">
    <!-- Generator: Sketch 49.2 (51160) - http://www.bohemiancoding.com/sketch -->
    <title>Shape</title>
    <desc>Created with Sketch.</desc>
    <defs></defs>
    <g id="Page-1" stroke="none" stroke-width="1" fill="none" fill-rule="evenodd">
        <g id="iPhone-8-Copy-4" transform="translate(-289.000000, -201.000000)" fill="#E6B91E" fill-rule="nonzero">
            <g id="item-copy-2" transform="translate(20.000000, 191.000000)">
                <g id="if_star_216411" transform="translate(269.000000, 10.000000)">
                    <path d="M5.71345258,5.124 C5.71345258,5.124 2.55345258,5.474 0.445452584,5.708 C0.255452584,5.731 0.087452584,5.858 0.024452584,6.051 C-0.038547416,6.244 0.024452584,6.445 0.164452584,6.572 C1.73045258,8.001 4.08345258,10.141 4.08345258,10.141 C4.08145258,10.141 3.43745258,13.254 3.00945258,15.331 C2.97345258,15.519 3.04145258,15.718 3.20545258,15.837 C3.36845258,15.956 3.57845258,15.958 3.74345258,15.865 C5.58745258,14.817 8.34945258,13.241 8.34945258,13.241 C8.34945258,13.241 11.1124526,14.817 12.9534526,15.866 C13.1214526,15.958 13.3314526,15.956 13.4944526,15.837 C13.6584526,15.718 13.7264526,15.519 13.6894526,15.332 C13.2614526,13.254 12.6184526,10.141 12.6184526,10.141 C12.6184526,10.141 14.9714526,8.001 16.5374526,6.575 C16.6774526,6.444 16.7394526,6.243 16.6774526,6.051 C16.6154526,5.859 16.4474526,5.732 16.2574526,5.71 C14.1494526,5.474 10.9884526,5.124 10.9884526,5.124 C10.9884526,5.124 9.67845258,2.226 8.80545258,0.294 C8.72345258,0.121 8.55145258,0 8.34945258,0 C8.14745258,0 7.97445258,0.122 7.89645258,0.294 C7.02245258,2.226 5.71345258,5.124 5.71345258,5.124 Z" id="Shape"></path>
                </g>
            </g>
        </g>
    </g>
</svg>